<svg width="97" height="27" viewBox="0 0 97 27" fill="none" xmlns="http://www.w3.org/2000/svg">
<path d="M21.6836 15.6289C21.3789 15.3242 20.8203 15.3242 20.5156 15.6289C20.2109 15.9336 20.2109 16.4922 20.5156 16.7969L23.207 19.4375H17.0625C16.8086 19.4375 16.5547 19.3359 16.4023 19.1328L14.4219 16.543C14.168 16.1875 13.6602 16.0859 13.3047 16.3906C12.9492 16.6445 12.8477 17.1523 13.1523 17.5078L15.082 20.0977C15.5391 20.707 16.25 21.0625 17.0625 21.0625H23.207L20.5156 23.7539C20.2109 24.0586 20.2109 24.6172 20.5156 24.9219C20.668 25.0742 20.8711 25.125 21.125 25.125C21.3281 25.125 21.5312 25.0742 21.6836 24.9219L25.7461 20.8594C26.0508 20.5547 26.0508 19.9961 25.7461 19.6914L21.6836 15.6289ZM17.0625 8.0625H23.207L20.5156 10.7539C20.2109 11.0586 20.2109 11.6172 20.5156 11.9219C20.668 12.0742 20.8711 12.125 21.125 12.125C21.3281 12.125 21.5312 12.0742 21.6836 11.9219L25.7461 7.85938C26.0508 7.55469 26.0508 6.99609 25.7461 6.69141L21.6836 2.62891C21.3789 2.32422 20.8203 2.32422 20.5156 2.62891C20.2109 2.93359 20.2109 3.49219 20.5156 3.79688L23.207 6.4375H17.0625C16.25 6.4375 15.5391 6.84375 15.082 7.45312L6.29688 19.1328C6.14453 19.3359 5.94141 19.4375 5.6875 19.4375H0.8125C0.355469 19.4375 0 19.8438 0 20.25C0 20.707 0.355469 21.0625 0.8125 21.0625H5.6875C6.44922 21.0625 7.16016 20.707 7.61719 20.0977L16.4023 8.41797C16.5547 8.21484 16.8086 8.0625 17.0625 8.0625ZM0.8125 8.0625H5.6875C5.94141 8.0625 6.14453 8.21484 6.29688 8.41797L8.27734 11.0078C8.42969 11.2109 8.68359 11.3125 8.9375 11.3125C9.08984 11.3125 9.24219 11.2617 9.39453 11.1602C9.75 10.9062 9.85156 10.3984 9.54688 10.043L7.61719 7.45312C7.16016 6.84375 6.44922 6.4375 5.6875 6.4375H0.8125C0.355469 6.4375 0 6.84375 0 7.25C0 7.70703 0.355469 8.0625 0.8125 8.0625Z" fill="white"/>
<path d="M46.5997 9.853C46.5277 9.979 46.4497 10.072 46.3657 10.132C46.2877 10.186 46.1887 10.213 46.0687 10.213C45.9427 10.213 45.8047 10.168 45.6547 10.078C45.5107 9.982 45.3367 9.877 45.1327 9.763C44.9287 9.649 44.6887 9.547 44.4127 9.457C44.1427 9.361 43.8217 9.313 43.4497 9.313C43.1137 9.313 42.8197 9.355 42.5677 9.439C42.3157 9.517 42.1027 9.628 41.9287 9.772C41.7607 9.916 41.6347 10.09 41.5507 10.294C41.4667 10.492 41.4247 10.711 41.4247 10.951C41.4247 11.257 41.5087 11.512 41.6767 11.716C41.8507 11.92 42.0787 12.094 42.3607 12.238C42.6427 12.382 42.9637 12.511 43.3237 12.625C43.6837 12.739 44.0527 12.862 44.4307 12.994C44.8087 13.12 45.1777 13.27 45.5377 13.444C45.8977 13.612 46.2187 13.828 46.5007 14.092C46.7827 14.35 47.0077 14.668 47.1757 15.046C47.3497 15.424 47.4367 15.883 47.4367 16.423C47.4367 17.011 47.3347 17.563 47.1307 18.079C46.9327 18.589 46.6387 19.036 46.2487 19.42C45.8647 19.798 45.3937 20.098 44.8357 20.32C44.2777 20.536 43.6387 20.644 42.9187 20.644C42.5047 20.644 42.0967 20.602 41.6947 20.518C41.2927 20.44 40.9057 20.326 40.5337 20.176C40.1677 20.026 39.8227 19.846 39.4987 19.636C39.1747 19.426 38.8867 19.192 38.6347 18.934L39.3457 17.773C39.4057 17.689 39.4837 17.62 39.5797 17.566C39.6757 17.506 39.7777 17.476 39.8857 17.476C40.0357 17.476 40.1977 17.539 40.3717 17.665C40.5457 17.785 40.7527 17.92 40.9927 18.07C41.2327 18.22 41.5117 18.358 41.8297 18.484C42.1537 18.604 42.5407 18.664 42.9907 18.664C43.6807 18.664 44.2147 18.502 44.5927 18.178C44.9707 17.848 45.1597 17.377 45.1597 16.765C45.1597 16.423 45.0727 16.144 44.8987 15.928C44.7307 15.712 44.5057 15.532 44.2237 15.388C43.9417 15.238 43.6207 15.112 43.2607 15.01C42.9007 14.908 42.5347 14.797 42.1627 14.677C41.7907 14.557 41.4247 14.413 41.0647 14.245C40.7047 14.077 40.3837 13.858 40.1017 13.588C39.8197 13.318 39.5917 12.982 39.4177 12.58C39.2497 12.172 39.1657 11.671 39.1657 11.077C39.1657 10.603 39.2587 10.141 39.4447 9.691C39.6367 9.241 39.9127 8.842 40.2727 8.494C40.6327 8.146 41.0767 7.867 41.6047 7.657C42.1327 7.447 42.7387 7.342 43.4227 7.342C44.1907 7.342 44.8987 7.462 45.5467 7.702C46.1947 7.942 46.7467 8.278 47.2027 8.71L46.5997 9.853ZM51.5476 12.256C51.9076 11.92 52.3036 11.647 52.7356 11.437C53.1676 11.227 53.6746 11.122 54.2566 11.122C54.7606 11.122 55.2076 11.209 55.5976 11.383C55.9876 11.551 56.3116 11.791 56.5696 12.103C56.8336 12.409 57.0316 12.778 57.1636 13.21C57.3016 13.636 57.3706 14.107 57.3706 14.623V20.5H55.1476V14.623C55.1476 14.059 55.0186 13.624 54.7606 13.318C54.5026 13.006 54.1096 12.85 53.5816 12.85C53.1976 12.85 52.8376 12.937 52.5016 13.111C52.1656 13.285 51.8476 13.522 51.5476 13.822V20.5H49.3246V7.126H51.5476V12.256ZM67.6907 11.266V20.5H66.3317C66.0377 20.5 65.8517 20.365 65.7737 20.095L65.6207 19.357C65.2427 19.741 64.8257 20.053 64.3697 20.293C63.9137 20.527 63.3767 20.644 62.7587 20.644C62.2547 20.644 61.8077 20.56 61.4177 20.392C61.0337 20.218 60.7097 19.975 60.4457 19.663C60.1817 19.351 59.9807 18.982 59.8427 18.556C59.7107 18.124 59.6447 17.65 59.6447 17.134V11.266H61.8677V17.134C61.8677 17.698 61.9967 18.136 62.2547 18.448C62.5187 18.754 62.9117 18.907 63.4337 18.907C63.8177 18.907 64.1777 18.823 64.5137 18.655C64.8497 18.481 65.1677 18.244 65.4677 17.944V11.266H67.6907ZM70.7929 20.5V12.94L69.9919 12.814C69.8179 12.778 69.6769 12.718 69.5689 12.634C69.4669 12.544 69.4159 12.418 69.4159 12.256V11.347H70.7929V10.663C70.7929 10.135 70.8709 9.661 71.0269 9.241C71.1889 8.821 71.4169 8.464 71.7109 8.17C72.0109 7.876 72.3739 7.651 72.7999 7.495C73.2259 7.339 73.7059 7.261 74.2399 7.261C74.6659 7.261 75.0619 7.318 75.4279 7.432L75.3829 8.548C75.3769 8.632 75.3529 8.701 75.3109 8.755C75.2689 8.803 75.2119 8.842 75.1399 8.872C75.0739 8.896 74.9959 8.914 74.9059 8.926C74.8159 8.932 74.7199 8.935 74.6179 8.935C74.3539 8.935 74.1169 8.965 73.9069 9.025C73.7029 9.079 73.5289 9.178 73.3849 9.322C73.2409 9.46 73.1299 9.646 73.0519 9.88C72.9799 10.108 72.9439 10.393 72.9439 10.735V11.347H75.3469V12.931H73.0159V20.5H70.7929ZM77.494 20.5V12.94L76.693 12.814C76.519 12.778 76.378 12.718 76.27 12.634C76.168 12.544 76.117 12.418 76.117 12.256V11.347H77.494V10.663C77.494 10.135 77.572 9.661 77.728 9.241C77.89 8.821 78.118 8.464 78.412 8.17C78.712 7.876 79.075 7.651 79.501 7.495C79.927 7.339 80.407 7.261 80.941 7.261C81.367 7.261 81.763 7.318 82.129 7.432L82.084 8.548C82.078 8.632 82.054 8.701 82.012 8.755C81.97 8.803 81.913 8.842 81.841 8.872C81.775 8.896 81.697 8.914 81.607 8.926C81.517 8.932 81.421 8.935 81.319 8.935C81.055 8.935 80.818 8.965 80.608 9.025C80.404 9.079 80.23 9.178 80.086 9.322C79.942 9.46 79.831 9.646 79.753 9.88C79.681 10.108 79.645 10.393 79.645 10.735V11.347H82.048V12.931H79.717V20.5H77.494ZM85.7972 7.126V20.5H83.5742V7.126H85.7972ZM94.2111 14.821C94.2111 14.533 94.1691 14.263 94.0851 14.011C94.0071 13.753 93.8871 13.528 93.7251 13.336C93.5631 13.144 93.3561 12.994 93.1041 12.886C92.8581 12.772 92.5701 12.715 92.2401 12.715C91.5981 12.715 91.0911 12.898 90.7191 13.264C90.3531 13.63 90.1191 14.149 90.0171 14.821H94.2111ZM89.9721 16.162C90.0081 16.636 90.0921 17.047 90.2241 17.395C90.3561 17.737 90.5301 18.022 90.7461 18.25C90.9621 18.472 91.2171 18.64 91.5111 18.754C91.8111 18.862 92.1411 18.916 92.5011 18.916C92.8611 18.916 93.1701 18.874 93.4281 18.79C93.6921 18.706 93.9201 18.613 94.1121 18.511C94.3101 18.409 94.4811 18.316 94.6251 18.232C94.7751 18.148 94.9191 18.106 95.0571 18.106C95.2431 18.106 95.3811 18.175 95.4711 18.313L96.1101 19.123C95.8641 19.411 95.5881 19.654 95.2821 19.852C94.9761 20.044 94.6551 20.2 94.3191 20.32C93.9891 20.434 93.6501 20.515 93.3021 20.563C92.9601 20.611 92.6271 20.635 92.3031 20.635C91.6611 20.635 91.0641 20.53 90.5121 20.32C89.9601 20.104 89.4801 19.789 89.0721 19.375C88.6641 18.955 88.3431 18.439 88.1091 17.827C87.8751 17.209 87.7581 16.495 87.7581 15.685C87.7581 15.055 87.8601 14.464 88.0641 13.912C88.2681 13.354 88.5591 12.871 88.9371 12.463C89.3211 12.049 89.7861 11.722 90.3321 11.482C90.8841 11.242 91.5051 11.122 92.1951 11.122C92.7771 11.122 93.3141 11.215 93.8061 11.401C94.2981 11.587 94.7211 11.86 95.0751 12.22C95.4291 12.574 95.7051 13.012 95.9031 13.534C96.1071 14.05 96.2091 14.641 96.2091 15.307C96.2091 15.643 96.1731 15.871 96.1011 15.991C96.0291 16.105 95.8911 16.162 95.6871 16.162H89.9721Z" fill="white"/>
</svg>
